<?xml version="1.0" standalone="yes"?>
<svg width="732" height="296">
<path style="fill:#1f2ebc; stroke:none;" d="M0 0L0 296L732 296L732 0L0 0z"/>
<path style="fill:#192064; stroke:none;" d="M140 50L140 51L166 50C158.737 46.9522 147.649 49.0333 140 50z"/>
<path style="fill:#0d0c0d; stroke:none;" d="M106 108L103 108C103.157 112.795 104.282 114.727 109 116L111 90L115 93L116 93L117 93L120 91C120.607 82.9833 125.96 84.4392 132 82L130 92L140 91L135 75C140.51 78.2365 144.494 85.6384 144 92L148 92L150 83L160 83L161 68L152 68L154 66L153 63L158 63L158 62L154 62L154 61C158.056 60.7138 162.741 60.3066 164 56L158 53C167.705 52.533 177.71 57.8371 184 65L186 65C188.041 47.3417 152.512 47.2576 141 51.4236C125.235 57.1286 108.924 67.7986 105.274 85.1698C103.731 92.51 105.995 100.581 106 108z"/>
<path style="fill:#1a206d; stroke:none;" d="M166 50L166 51L176 52L166 50z"/>
<path style="fill:#8494a1; stroke:none;" d="M47 138L48 138L53 136C60.6151 121.478 83.1005 122.404 84 103L100 98L101 98L103 97C98.0873 73.758 123.062 61.0654 140 52C130.185 47.9198 110.584 56.0375 102 61.0532C75.2419 76.6879 47.6916 104.67 47 138z"/>
<path style="fill:#382e2f; stroke:none;" d="M158 53L164 56L154 61L154 62L158 62L158 63L153 63L154 66L152 68L161 68L160 83C151.472 89.6559 171.592 87.1903 174 87L174 90L180 91L178 76C192.57 89.0439 201.703 109.463 197 129C207.524 129.043 208.794 140.684 199 135L197 160L200 160L206.727 139.3L211 131L208 132C209.299 127.853 211.767 126.758 216 127L217 118L215 113L207 112L208 119L206 119L207 105L199 103L191.831 85.2091L188.623 79.1698L194 74L195 82L199 81C198.005 73.3522 197.806 66.1044 189 66L191 58L184 55L186 65L184 65C179.518 57.5505 166.533 51.398 158 53z"/>
<path style="fill:#43474c; stroke:none;" d="M132 55L132 56L136 55L132 55z"/>
<path style="fill:#8595a2; stroke:none;" d="M187 56L187 57L204.405 68.0934L215 82L215 87L218 87L219 107L220 107L223 92L224 92L228 103L232 103L229 106L231 110L228 111L230 117L241 130L253 149C261.725 150.819 259 162.003 259 169C262.266 161.218 259.874 149.201 258.95 141C255.539 110.72 235.924 81.3418 209.715 66.0448C202.45 61.8045 195.685 56.4457 187 56z"/>
<path style="fill:#3b4047; stroke:none;" d="M123 62L128 57L123 62z"/>
<path style="fill:#121012; stroke:none;" d="M189 59L189 66C197.319 66.2711 197.612 73.9624 199 81L195 82L194 74C182.681 81.6785 196.665 91.6687 199 103L207 105L206 112L215 113L215 118C220.748 113.939 220.977 90.3538 213 89L211 77L204 74L205 70L200 63L189 59z"/>
<path style="fill:#4f565a; stroke:none;" d="M194 61L194 62L199 63L199 62L194 61z"/>
<path style="fill:#31353d; stroke:none;" d="M200 63L205 70L204 74L206 76L207 76C206.816 70.2197 204.461 66.5905 200 63z"/>
<path style="fill:#566069; stroke:none;" d="M207 71C207.013 74.1942 206.597 76.2708 210 77L210 76L207 71z"/>
<path style="fill:#71777d; stroke:none;" d="M109 73L106 83L107 83L109 73z"/>
<path style="fill:#605658; stroke:none;" d="M135 75L139 80L138 75L135 75z"/>
<path style="fill:#6f5a57; stroke:none;" d="M178 76L180 91L174 90L174 87C169.587 87.0742 155.856 87.006 155 91L172 94.6636L191 92L191 91L178 76z"/>
<path style="fill:#2f1e1c; stroke:none;" d="M139 79L140 91L134 91L134 92L153 93L153 83C149.032 83.846 148.25 88.2784 148 92L144 92C144.977 86.6918 142.955 82.5461 139 79z"/>
<path style="fill:#524746; stroke:none;" d="M125 86L125 90C130.223 89.5835 130.998 86.7591 132 82L125 86z"/>
<path style="fill:#2b3137; stroke:none;" d="M213 82L213 89L217 91L218 91L214 88L213 82z"/>
<path style="fill:#585f66; stroke:none;" d="M214 82L214 88L218 88L218 87L215 87L214 82z"/>
<path style="fill:#302626; stroke:none;" d="M120 91L117 93L116 93L115 93L111 90L109 116C105.244 114.478 103.644 113.057 103 109C99.7961 111.322 101.041 127.831 104 130C111.118 121.698 122.424 124.854 131 129L131 130L121 130L121 131C125.655 133.662 126.744 136.477 132 133C132.283 142.582 136.264 147.427 124 150L124 151L131 153C137.58 144.285 140.046 138.198 139 127L134 123L128 118C122.144 117.211 118.179 115.317 113 119C113.002 103.173 118.721 98.3338 133 93L133 92L125 90L128 86C123.766 80.0385 120.159 86.1299 120 91z"/>
<path style="fill:#534545; stroke:none;" d="M152 84L153 93L154 93L155 88L159 88L158 83L152 84z"/>
<path style="fill:#6d767d; stroke:none;" d="M103 84L103 97L104 97L105 84L103 84z"/>
<path style="fill:#45474c; stroke:none;" d="M104 85L101 110L106 108L104 85z"/>
<path style="fill:#dae3f3; stroke:none;" d="M341 134C343.404 133.942 346.315 134.149 348.143 132.258C352.189 128.073 351.124 119.152 354.225 114.004C355.832 111.335 362.537 104.524 364.072 111.074C364.875 114.504 362.667 119.587 362.001 123C361.28 126.695 361.01 130.242 361 134C377.282 133.606 379.005 87.1252 355 104L358 87L349.988 88.6034L346.046 105L341 134z"/>
<path style="fill:#9e8088; stroke:none;" d="M128 114L129 114L134.603 96.6034L144 95L166 92C159.222 86.8392 148.999 93.9938 141 94C138.127 94.0022 133.095 93.1867 131.028 95.7423C128.548 98.8074 128.357 109.9 128 114z"/>
<path style="fill:#c39fa1; stroke:none;" d="M177 93L177 94L185 92C184.254 94.9459 183.803 96.3114 187 97L187 96L185 95L189 94C186.963 88.2112 181.244 91.0274 177 93z"/>
<path style="fill:#dae3f3; stroke:none;" d="M303 90C286.579 90.058 293.037 111.285 286.836 121.938C284.379 126.158 275.661 124.322 277.337 130.776C278.759 136.249 288.824 134.07 291.891 131.566C297.653 126.863 297.84 116.798 299.2 110C300.527 103.362 302.133 96.7133 303 90z"/>
<path style="fill:#9aa5e0; stroke:none;" d="M357 90L357 93L358 93L357 90z"/>
<path style="fill:#dae3f3; stroke:none;" d="M431 134C433.809 133.99 437.834 134.59 439.436 131.682C441.391 128.132 440.049 116.597 446.043 116.752C453.916 116.955 450.879 128.331 454.175 132.397C456.063 134.726 460.359 133.998 463 134L458 113C465.341 110.483 471.896 98.0083 463.772 92.2284C459.439 89.146 442.473 87.5202 438.988 92.3179C436.671 95.5084 436.557 101.217 435.8 105C433.896 114.52 431.081 124.259 431 134z"/>
<path style="fill:#e7c4ca; stroke:none;" d="M148 105L151 101L159 103L158 108L161 111L152 120L184 122L184 121C180.952 119.26 175.293 112.967 174 119L171 119L171 116L165 117L166 102L162 102C162 98.6373 162.716 95.7963 159 95L164 92C155.723 88.6245 146.572 96.9182 148 105z"/>
<path style="fill:#505eab; stroke:none;" d="M238 91L243 98L238 91z"/>
<path style="fill:#594245; stroke:none;" d="M133 92L133 93L141 93L133 92z"/>
<path style="fill:#f2d6db; stroke:none;" d="M159 95L162 102L166 102L165 117L171 116L174 119C176.957 114.887 182.166 120.652 186 122L189 120L188 105C182.664 103.314 184.854 98.9119 181.258 96.0278C177.594 93.0885 161.587 91.0099 159 95z"/>
<path style="fill:#d6bbbe; stroke:none;" d="M174 94L174 95L188 105L189 120L169 125L169 126L195 128L190.97 117.011L194 95L184 97L185 92L174 94z"/>
<path style="fill:#a88584; stroke:none;" d="M189 92L185 95L185 96L193 95L189 92z"/>
<path style="fill:#586068; stroke:none;" d="M219 92L218 116L219 116L219 92z"/>
<path style="fill:#97a5b2; stroke:none;" d="M223 92C221.49 100.981 217.357 110.636 217 120C216.862 123.63 215.872 128.115 220 129L215 133L215 134L218 134L219 143L226 146L224 148C225.61 152.013 231.576 157.381 227 161L244 184L239 185L251 199C258.232 188.867 259 175.014 259 163C259 156.8 260.717 149.888 253 149L241 130L230 117L228 111L231 110L229 106L232 103L228 103C227.779 98.2433 226.7 95.097 223 92z"/>
<path style="fill:#73555c; stroke:none;" d="M113 119L127 118C128.638 105.843 127.863 94.0094 142 94C124.01 86.4511 113 104.184 113 119z"/>
<path style="fill:#593e42; stroke:none;" d="M142 93L142 94L151 94L142 93z"/>
<path style="fill:#9aa5e0; stroke:none;" d="M302 93L302 96L303 96L302 93z"/>
<path style="fill:#d0aeb7; stroke:none;" d="M127 118C133.934 118.507 135.67 123.672 141.209 126.57C147.074 129.639 155.012 127.549 161 126L161 125L157 125L160 120L160 119L152 120L161 111L158 108L159 103L151 101L148 105C147.585 100.943 147.241 98.2193 151 96C135.203 89.3714 128.883 104.747 127 118z"/>
<path style="fill:#9aa5e0; stroke:none;" d="M356 95L356 98L357 98L356 95z"/>
<path style="fill:#9fa9b5; stroke:none;" d="M84 103C83.1622 112.313 74.7797 120.82 66.8256 125.101C60.9742 128.251 55.329 128.68 53 136C40.9856 136.846 45 160.265 45 169L46 169L46 161L47 161L47 164L53 164C57.0763 154.406 72.376 152.302 82 151L83 138L88 139L93 122L96 122L95 114L98 119L99 119L104 97L100 98L84 103z"/>
<path style="fill:#8f7473; stroke:none;" d="M194 96L192 123L194 123L194 96z"/>
<path style="fill:#6b504c; stroke:none;" d="M195 96L196 129L197 129L196.041 110L195 96z"/>
<path style="fill:#9aa5e0; stroke:none;" d="M467 96L467 103L468 103L467 96M446 97L446 100L447 100L446 97z"/>
<path style="fill:#1f2ebc; stroke:none;" d="M447 97L445 109C457.721 108.729 462.099 97.1267 447 97z"/>
<path style="fill:#9aa5e0; stroke:none;" d="M301 98L301 101L302 101L301 98z"/>
<path style="fill:#dae3f3; stroke:none;" d="M318 100.649C299.059 106.371 300.183 141.546 324 134.351C342.735 128.691 341.97 93.4073 318 100.649z"/>
<path style="fill:#8f9add; stroke:none;" d="M355 100L355 103L356 103L355 100z"/>
<path style="fill:#dae3f3; stroke:none;" d="M390 106L391 101C380.048 101.13 380.93 113.279 379.2 122C378.616 124.941 376.662 130.696 379.603 132.968C382.467 135.181 385.368 132.646 386.291 129.941C388.562 123.283 388.274 110.902 396.945 108.497C400.479 107.517 400.817 111.577 400.542 114.001C400.105 117.846 394.06 135.337 402.91 133.623C407.534 132.728 406.975 126.529 407.616 123C409.194 114.307 412.662 93.285 396.005 101.452C393.697 102.583 391.89 104.305 390 106z"/>
<path style="fill:#9aa5e0; stroke:none;" d="M445 102L445 105L446 105L445 102z"/>
<path style="fill:#838c95; stroke:none;" d="M102 103C97.3831 111.461 99.9748 119.876 100 129L101 129L100.673 112L102 103z"/>
<path style="fill:#9aa5e0; stroke:none;" d="M300 103L300 106L301 106L300 103z"/>
<path style="fill:#1f2ebc; stroke:none;" d="M355 103L356 104L355 103z"/>
<path style="fill:#6a77d2; stroke:none;" d="M390 104L390 106L392 104L390 104z"/>
<path style="fill:#9aa5e0; stroke:none;" d="M373 105L373 113L374 113L373 105z"/>
<path style="fill:#1f2ebc; stroke:none;" d="M321.015 107.786C313.013 110.44 310.559 130.758 320.985 127.087C328.691 124.374 331.507 104.307 321.015 107.786z"/>
<path style="fill:#8490da; stroke:none;" d="M345 107L345 110L346 110L345 107z"/>
<path style="fill:#9aa5e0; stroke:none;" d="M444.333 107.667L444.667 108.333L444.333 107.667M299 108L299 111L300 111L299 108z"/>
<path style="fill:#6a77d2; stroke:none;" d="M410.333 108.667L410.667 109.333L410.333 108.667z"/>
<path style="fill:#9aa5e0; stroke:none;" d="M337 109L337 117L338 117L337 109M364 109L364 113L365 113L364 109M328 110L328 116L329 116L328 110z"/>
<path style="fill:#6a5e5e; stroke:none;" d="M205 112L206 119L208 119L205 112z"/>
<path style="fill:#9aa5e0; stroke:none;" d="M298 113L298 116L299 116L298 113z"/>
<path style="fill:#acb7c1; stroke:none;" d="M95 114L96 122L93 122L88 139L83 138L82 151C72.9183 151.743 55.5624 154.181 53 164L47 161L46 161C46 179.016 49.847 193.039 58 209L59 209C58.9911 203.605 60.1491 198.954 66 198C66.0333 185.925 71.9896 181.006 77 171L80 172L96.5571 150.78L105 142C104.682 135.053 100.673 118.124 95 114z"/>
<path style="fill:#aab5e5; stroke:none;" d="M372 114L372 118L373 118L372 114z"/>
<path style="fill:#5c5e63; stroke:none;" d="M102 117L101 125C103.687 122.339 104.142 120.21 102 117z"/>
<path style="fill:#9aa5e0; stroke:none;" d="M313 117L313 125L314 125L313 117M442 117L442 120L443 120L442 117z"/>
<path style="fill:#6e5558; stroke:none;" d="M128 118C128.661 121.814 130.259 122.57 134 123L128 118z"/>
<path style="fill:#8f727a; stroke:none;" d="M131 118C135.72 128.531 142.206 129 153 129L153 128C142.197 127.97 139.808 122.199 131 118z"/>
<path style="fill:#9aa5e0; stroke:none;" d="M297 118L297 121L298 121L297 118M304 118L304 126L305 126L304 118M408.333 118.667L408.667 119.333L408.333 118.667z"/>
<path style="fill:#8d676d; stroke:none;" d="M157 120L157 125L179 127L179 126L169 126L169 125L173 124C170.931 117.76 162.297 119.02 157 120z"/>
<path style="fill:#585b62; stroke:none;" d="M216 119L216 128L217 128L216 119z"/>
<path style="fill:#8490da; stroke:none;" d="M336.333 119.667L336.667 120.333L336.333 119.667z"/>
<path style="fill:#aab5e5; stroke:none;" d="M371 119L371 123L372 123L371 119z"/>
<path style="fill:#9aa5e0; stroke:none;" d="M388 119L388 122L389 122L388 119M351 120L351 123L352 123L351 120z"/>
<path style="fill:#6a77d2; stroke:none;" d="M451.333 120.667L451.667 121.333L451.333 120.667z"/>
<path style="fill:#9aa5e0; stroke:none;" d="M441 122L441 125L442 125L441 122z"/>
<path style="fill:#8490da; stroke:none;" d="M296.333 123.667L296.667 124.333L296.333 123.667z"/>
<path style="fill:#9aa5e0; stroke:none;" d="M407 123L407 126L408 126L407 123z"/>
<path style="fill:#dae3f3; stroke:none;" d="M473.228 124.032C467.395 127.494 471.271 137.202 477.682 132.971C482.408 129.853 479.252 120.457 473.228 124.032z"/>
<path style="fill:#505fac; stroke:none;" d="M255 124L255 128L256 128L255 124z"/>
<path style="fill:#aab5e5; stroke:none;" d="M370 124L370 128L371 128L370 124z"/>
<path style="fill:#9aa5e0; stroke:none;" d="M387 124L387 127L388 127L387 124z"/>
<path style="fill:#3a3c41; stroke:none;" d="M105 127L105 129L110 130L110 129L107 127L113 127L111 131L112 134L113 134C115.251 127.953 117.455 126.077 124 126C118.547 123.712 110.24 124.478 105 127z"/>
<path style="fill:#ad8d8f; stroke:none;" d="M194 125L192 128L192 129L196 129L194 125z"/>
<path style="fill:#9aa5e0; stroke:none;" d="M350 125L350 128L351 128L350 125M480 125L480 129L481 129L480 125z"/>
<path style="fill:#65474b; stroke:none;" d="M116 126L116 127L119 127C118.183 139.16 126.078 133.532 129.914 141.133C135.357 151.924 111.494 146.924 108 146C112.324 152.392 129.694 153.83 133.882 145.773C135.722 142.232 132.247 136.793 132 133C126.628 135.367 125.824 132.678 121 131L121 130L131 130C126.962 125.204 121.804 126 116 126z"/>
<path style="fill:#6c5358; stroke:none;" d="M159 126L159 127L167 127L159 126z"/>
<path style="fill:#171213; stroke:none;" d="M208 132L220 132C217.787 125.763 209.262 124.662 208 132z"/>
<path style="fill:#1c2229; stroke:none;" d="M107 127L113 132L113 127L107 127z"/>
<path style="fill:#b5b1bb; stroke:none;" d="M115 127L115 132L118 127L115 127z"/>
<path style="fill:#78535a; stroke:none;" d="M118 127L116 134L111 134L110 147C118.358 148.985 119.813 143.504 127 141L125 145L125 146C128.755 146.288 133.485 143.718 129.396 139.603C127.032 137.223 123.138 138.382 120.813 135.682C118.708 133.236 119.146 129.816 118 127z"/>
<path style="fill:#4d3a47; stroke:none;" d="M153 130C162.677 127.496 186.409 123.844 188 138L191 129C182.667 128.342 158.265 121.879 153 130z"/>
<path style="fill:#8f9add; stroke:none;" d="M320.667 127.333L321.333 127.667L320.667 127.333z"/>
<path style="fill:#9aa5e0; stroke:none;" d="M440 127L440 130L441 130L440 127z"/>
<path style="fill:#898790; stroke:none;" d="M114 128L114 134L117 133L114 128z"/>
<path style="fill:#140305; stroke:none;" d="M138 128L138 142L142.6 133.618L153 129L138 128z"/>
<path style="fill:#8f6f79; stroke:none;" d="M159 128L159 129L165 132L172 132L177 129L159 128z"/>
<path style="fill:#8e858e; stroke:none;" d="M186 128L186 129L190 129L186 128z"/>
<path style="fill:#47515b; stroke:none;" d="M102 129L105 133L105 129L102 129z"/>
<path style="fill:#778087; stroke:none;" d="M105 129L103 133L103 134L107 137L108 137L111 130L105 129z"/>
<path style="fill:#4b3439; stroke:none;" d="M142 129L142 130L150 130L142 129z"/>
<path style="fill:#ab7481; stroke:none;" d="M152 136L153 136L153 132C160.557 135.376 158.609 139.504 153 144L158 152C163.767 149.454 168.988 154.241 175 153.814C186.022 153.031 195.223 137.288 184 130C184.466 134.237 186.991 137.659 186.082 142.004C182.854 157.419 165.364 151.123 157 144C162.461 144 169.867 145.79 171 139L162 140L165 130C158.932 127.454 152.543 128.881 152 136z"/>
<path style="fill:#b8a0aa; stroke:none;" d="M171 130L171 131C175.71 133.795 179.351 137.19 185 136C183.326 128.512 177.782 127.995 171 130z"/>
<path style="fill:#886560; stroke:none;" d="M191 129L191 135L196 135C197.706 146.656 194.29 152.946 192 164L196 162L189 181C194.457 179.208 196.712 171.322 197 166L202 166L202 165L200 160L197 160C197.654 151.997 204.389 134.407 192 134L191 129z"/>
<path style="fill:#554452; stroke:none;" d="M192 129L192 134L196 134L196 133L193 133L193 130L196 130L192 129z"/>
<path style="fill:#1a1419; stroke:none;" d="M193 130L193 133C196.046 133.845 201.066 138.438 203.785 138.173C207.784 137.782 207.048 131.734 204.566 130.028C201.454 127.888 196.38 129.372 193 130z"/>
<path style="fill:#6a77d2; stroke:none;" d="M276 129L276 132L277 132L276 129z"/>
<path style="fill:#9aa5e0; stroke:none;" d="M386 129L386 132L387 132L386 129z"/>
<path style="fill:#644654; stroke:none;" d="M163 130L162 137L171 133L174 137L175 133L166 130L163 130z"/>
<path style="fill:#9aa5e0; stroke:none;" d="M349 130L349 133L350 133L349 130M397 130L399 134L397 130z"/>
<path style="fill:#8f9add; stroke:none;" d="M360 131L360 134L361 134L360 131z"/>
<path style="fill:#9aa5e0; stroke:none;" d="M377 131L379 134L377 131M463.333 131.667L463.667 132.333L463.333 131.667z"/>
<path style="fill:#472c33; stroke:none;" d="M141 138L142 138L148 133C143.436 131.152 141.351 133.5 141 138z"/>
<path style="fill:#3b282c; stroke:none;" d="M151 132L148 133L153 142L151 132z"/>
<path style="fill:#b59daa; stroke:none;" d="M153 132L153 138L156 141C161.76 137.353 158.069 133.524 153 132z"/>
<path style="fill:#5e4548; stroke:none;" d="M212 132L212 133L219 133L212 132z"/>
<path style="fill:#9f7e85; stroke:none;" d="M143 139L144 139L148 134C144.094 132.72 143.268 135.549 143 139z"/>
<path style="fill:#22212c; stroke:none;" d="M168 133L169 138L173 137L171 133L168 133z"/>
<path style="fill:#756a76; stroke:none;" d="M175 133L179 137L175 133z"/>
<path style="fill:#a37982; stroke:none;" d="M208 138L215 133L208 138z"/>
<path style="fill:#9aa5e0; stroke:none;" d="M347.667 133.333L348.333 133.667L347.667 133.333M367.667 133.333L368.333 133.667L367.667 133.333z"/>
<path style="fill:#a0919b; stroke:none;" d="M104 134L106 171L107 171L107 154L108 154C108.001 158.64 107.111 163.035 112 165L108 146L112 146L111 134L109 134L108 137L107 137L104 134z"/>
<path style="fill:#e0acb9; stroke:none;" d="M141 155L142 155L146 135L149 136C142.872 129.245 141 151.69 141 155z"/>
<path style="fill:#7a5a6a; stroke:none;" d="M165 134L162 140L171 139L168 134L165 134z"/>
<path style="fill:#aab8c3; stroke:none;" d="M215 134C217.518 144.581 214.045 155.053 206 162C209.025 171.154 203.24 170.59 199.804 177.144C197.32 181.881 198 187.844 198 193L199 193C199.005 185.82 199.138 178.914 206 175L204 181L204 182L206 185L212 185C212.819 192.331 217.953 192.258 222.74 196.62C229.586 202.857 236.635 209.679 242 217C245.721 211.104 252.961 200.925 248.513 194.13C245.966 190.239 241.295 189.072 239 185L244 184L227 161C233.086 159.669 224.78 150.36 226 146L219 143L218 134L215 134z"/>
<path style="fill:#f3ccd5; stroke:none;" d="M146 135L144 158L155 157L155 160L164 162C164.988 157.565 163.427 155.706 159 155C157.434 149.247 151.262 137.864 146 135z"/>
<path style="fill:#c9969e; stroke:none;" d="M174 135C168.586 142.963 166.897 144 157 144L168 151L167 148C174.569 147.978 178.185 146.636 174 139L178 138L174 135z"/>
<path style="fill:#ecc6ce; stroke:none;" d="M190 135C187.647 146.368 184.366 153.016 172 154C172.714 157.343 174.542 160.57 174.758 164C175.587 177.198 154.004 174.861 145 180L145 182C149.961 186.357 149.946 204.939 161.447 196.147C163.577 194.518 164.651 192.383 167 191L169 181L176 184L181 176L176 177L176 172L182 173C183.989 170.197 185.883 171.115 189 172C193.147 160.93 198.633 146.521 196 135L190 135z"/>
<path style="fill:#984e5c; stroke:none;" d="M213 135L214 145L216 145L216 135L213 135z"/>
<path style="fill:#694d54; stroke:none;" d="M142 136L131 153C136.599 151.288 143.449 141.994 142 136z"/>
<path style="fill:#70575f; stroke:none;" d="M152 136L152 144L156 138L152 136z"/>
<path style="fill:#e7c2c8; stroke:none;" d="M174 139C176.777 146.303 174.616 147.931 167 148C169.98 153.101 180.11 153.416 183.911 148.567C186.481 145.289 186.826 139.988 187 136L174 139z"/>
<path style="fill:#f2ccd7; stroke:none;" d="M201 165C216.829 161.706 213.032 147.535 213 136C202.134 138.67 211.863 145.001 209.674 150.945C207.253 157.519 201.033 155.782 201 165z"/>
<path style="fill:#d0919e; stroke:none;" d="M213 136L213 145L214 145L213 136z"/>
<path style="fill:#4c5ab6; stroke:none;" d="M45 138L45 146L46 146L45 138z"/>
<path style="fill:#794c55; stroke:none;" d="M206 138L206 148L207 148L206 138z"/>
<path style="fill:#af8087; stroke:none;" d="M142 139L141 144L142 144L142 139z"/>
<path style="fill:#a38a8f; stroke:none;" d="M150.333 139.667L150.667 140.333L150.333 139.667z"/>
<path style="fill:#b9c3cc; stroke:none;" d="M103 141C96.6847 149.548 81.6617 161.687 80 172L77 171C70.243 180.21 66.0078 186.182 66 198C49.7086 199.298 64.7412 222.209 71 227L70 224L77 221L77 220L73 220L85 209L84 204L81 203L95 191C94.374 183.462 88.1469 167.397 100 165L103 149L105 149L105 171L106 171C106 161.997 109.732 147.793 103 141z"/>
<path style="fill:#956a75; stroke:none;" d="M119 148C122.091 149.13 130.879 147.17 125 146L125 145L127 141C122.535 141.98 120.247 143.53 119 148z"/>
<path style="fill:#815e67; stroke:none;" d="M140 143L131 156L132 156L139 153L140 143z"/>
<path style="fill:#bd7484; stroke:none;" d="M207 143L205 148L205 149L207 153C212.661 151.132 209.371 146.7 207 143z"/>
<path style="fill:#c899a6; stroke:none;" d="M140 145L139 153L132 156L144 158L140 145z"/>
<path style="fill:#c5a0a5; stroke:none;" d="M196 145L193 158L194 158L196 145z"/>
<path style="fill:#5b69b9; stroke:none;" d="M44 146L44 168L45 168L44 146z"/>
<path style="fill:#cfd8df; stroke:none;" d="M103 149L100 165C88.1355 166.149 93.6673 183.821 95 191C91.8493 191.658 78.0389 202.689 84 204L73 220L77 220L77 221L70 224C72.4767 231.901 86.5138 248.548 96 247.393C105.262 246.265 114.193 238.166 122 234C122.998 222.552 128.213 213.592 124.942 202C122.307 192.659 112.344 185.853 108.117 176.914C103.975 168.158 105 158.404 105 149L103 149z"/>
<path style="fill:#8c6971; stroke:none;" d="M110 149L112 165C107.643 162.327 108.004 158.744 108 154L107 154C107 162.828 109.224 177.004 121 177C124.763 187.307 123.176 196.01 133 203L133 201L134 203L145 201L153 204L153 203L145 197L139 200C136.265 195.69 129.872 194.402 125 194C127.275 190.18 130.7 189.277 135 189C133.695 185.029 130.919 184.543 127 184C127.13 180.018 127.44 176.752 132 178L133 178L138 171L134 171L134 174C129.356 173.862 119.858 171.304 120.831 164.957C121.291 161.958 125.839 155.411 123.843 152.514C121.818 149.574 113.421 150.902 110 149z"/>
<path style="fill:#84686c; stroke:none;" d="M201 149L201 150L205 150L201 149z"/>
<path style="fill:#d7afb4; stroke:none;" d="M200 165L201 165C201.072 158.921 202.685 155.279 209 154L209 153L207 149C198.312 150.917 200 157.516 200 165z"/>
<path style="fill:#60373c; stroke:none;" d="M159 150L167 154L159 150z"/>
<path style="fill:#684250; stroke:none;" d="M124 151L120 169L124 164C126.278 168.789 128.992 168.982 134 169L133 173L124 171L124 172L134 174L134 171L144 171L144 170L130 168L130 165L143 162C141.969 155.699 136.393 156.19 131 156L124 151z"/>
<path style="fill:#f8cdd8; stroke:none;" d="M201 154L205 151L201 154z"/>
<path style="fill:#a67682; stroke:none;" d="M116 152L117 162C121.503 160.507 121.457 156.272 122 152L116 152z"/>
<path style="fill:#946c75; stroke:none;" d="M159 152L163 154L163 153L159 152z"/>
<path style="fill:#7b4955; stroke:none;" d="M166 152L164 154L170 160L170 153L166 152z"/>
<path style="fill:#c49ca1; stroke:none;" d="M159 154L159 155C166.237 157.056 167.815 164.463 163 170L163 171C166.538 169.757 166.803 167.569 167 164L172 174L173 174C174.642 166.003 174.601 161.818 172 154L168 154L173 164L159 154z"/>
<path style="fill:#cf96a4; stroke:none;" d="M144 158L144 162L148 166L143 166L143 162L137 167C145.899 169.63 147.845 165.254 155 162L155 157L144 158z"/>
<path style="fill:#ad7c83; stroke:none;" d="M170 157L168 161L173 164L170 157z"/>
<path style="fill:#9b7379; stroke:none;" d="M143 158L143 166L148 166L144 162L143 158z"/>
<path style="fill:#ddbec1; stroke:none;" d="M165 158L164 162C156.933 159.764 150.675 160.745 149 169L165 170L165 158z"/>
<path style="fill:#bd9193; stroke:none;" d="M192 159L184 181L181 179L180 185L177 185L177 189L176 189L176 185L168 185L167 191L164 191L164 198L189 182L196 162L192 164L192 159z"/>
<path style="fill:#856a72; stroke:none;" d="M130 165L130 168L142 169L142 168L137 167L139 163L130 165z"/>
<path style="fill:#3a2628; stroke:none;" d="M123 164C121.556 170.855 126.944 172.611 133 173L134 169L123 164z"/>
<path style="fill:#a57d7d; stroke:none;" d="M167 164L167 169L171 169L167 173L167 174L171 175C172.496 170.352 171.365 166.477 167 164z"/>
<path style="fill:#2c2b2e; stroke:none;" d="M198 174C205.771 173.93 207.059 171.395 208 164C201.395 164.718 199.239 167.777 198 174z"/>
<path style="fill:#5c3e3b; stroke:none;" d="M197 166L188 187L175 193L173 198C163.333 193.011 153.749 209.228 145 201L133 201L133 203L120 190L121 186L114 184L126 203C130.817 204.199 134.983 207.298 140 207.871C159.11 210.056 186.886 197.823 195 180L196 180L195 201L197 201L201 174C198.287 171.858 199.021 169.556 201 167L197 166z"/>
<path style="fill:#654c4f; stroke:none;" d="M107 168L113 185L116 184C116.689 187.197 118.054 186.746 121 186L120 190L123 194L124 194L121 177L107 168z"/>
<path style="fill:#b2858f; stroke:none;" d="M142 168L142 169L159 174L164 174L164 173L163 170L142 168z"/>
<path style="fill:#8e6f7a; stroke:none;" d="M142 169L142 170L144 170L144 171L141 171L141 172L146 171L146 170L142 169z"/>
<path style="fill:#8e6366; stroke:none;" d="M166 169L168 171L168 172L165 172L165 173C168.41 172.737 169.901 172.321 171 169L166 169z"/>
<path style="fill:#d6afaf; stroke:none;" d="M182 173L176 172L176 177L181 176L176 184L173 181L169 181L167 187L168 187L169 185L170 185L176 185L176 189L177 189L177 185L180 185L181 179L184 181C185.702 179.053 187.977 176.853 187.806 174C187.561 169.941 182.875 168.915 182 173z"/>
<path style="fill:#dae3f3; stroke:none;" d="M492 217C494.404 216.942 497.315 217.149 499.143 215.258C503.189 211.073 502.124 202.152 505.225 197.004C506.832 194.335 513.537 187.524 515.072 194.074C515.875 197.504 513.667 202.587 513.001 206C512.279 209.695 512.01 213.242 512 217C528.282 216.606 530.005 170.125 506 187L509 170L500.988 171.603L497.046 188L492 217z"/>
<path style="fill:#c9babc; stroke:none;" d="M138 171L142 175L138 171z"/>
<path style="fill:#cca7af; stroke:none;" d="M145 171L146 179L142 179L143 194L149 203L164 198L164 194L163 194C150.527 206.478 151.413 185.853 145 182L145 180L162 175L162 174L159 174C158.312 168.996 148.922 173.984 145 174L147 171L145 171z"/>
<path style="fill:#f2dee0; stroke:none;" d="M145 174L154 171L145 174z"/>
<path style="fill:#502b36; stroke:none;" d="M162 173L168 172L162 173z"/>
<path style="fill:#a9a8ae; stroke:none;" d="M107 172L108 179L109 179L107 172z"/>
<path style="fill:#ca849f; stroke:none;" d="M137 172C132.565 181.923 138.119 180.003 146 179L143 172L142 175L137 172z"/>
<path style="fill:#dae3f3; stroke:none;" d="M338 217C345.763 217 354.507 218.125 362 215.779C375.187 211.651 387.017 188.648 374.786 177.394C370.031 173.018 350.492 169.117 345.988 175.318C342.302 180.394 342.218 190.909 341 197C339.67 203.651 338.056 210.191 338 217z"/>
<path style="fill:#9aa5e0; stroke:none;" d="M508 173L508 176L509 176L508 173z"/>
<path style="fill:#dae3f3; stroke:none;" d="M616 217L624.143 215.397L627.4 204L633 173L624.738 174.028L621.4 185L616 217M635 217L643 217L652 173L642.988 174.603L640.406 186L635 217M653 217L661.012 215.397L664.2 203L670 173L661.857 174.603L658.576 186L653 217z"/>
<path style="fill:#bdc7d0; stroke:none;" d="M197 202C201.907 202 202 214.101 202 218L203 218L203 210C217.38 210.787 213.752 228 225.134 232.953C230.976 235.495 241.21 220.246 240.459 215.019C238.581 201.945 214.506 197.378 212 185L206 185L204 182L204 181L206 175C196.687 178.482 198.549 193.688 197 202z"/>
<path style="fill:#b09198; stroke:none;" d="M127 184L135 189L138 186L139 186L140 191L135 192L140 195C143.475 189.856 143.413 184.936 142 179C138.418 180.88 136.083 180.555 134 177C128.1 176.548 127.071 178.03 127 184z"/>
<path style="fill:#aab5e5; stroke:none;" d="M669 176L669 180L670 180L669 176z"/>
<path style="fill:#9aa5e0; stroke:none;" d="M507 178L507 181L508 181L507 178M650 179L650 182L651 182L650 179z"/>
<path style="fill:#8d6a68; stroke:none;" d="M195 180L192 186C194.288 185.058 194.658 184.437 195 187L196 187L195 180z"/>
<path style="fill:#9aa5e0; stroke:none;" d="M353 180L353 183L354 183L353 180z"/>
<path style="fill:#1f2ebc; stroke:none;" d="M354 180L348 210C353.495 209.954 359.559 209.646 363.786 205.656C375.494 194.605 368.554 180.12 354 180z"/>
<path style="fill:#7885d6; stroke:none;" d="M361.667 180.333L362.333 180.667L361.667 180.333z"/>
<path style="fill:#aab5e5; stroke:none;" d="M668 181L668 185L669 185L668 181z"/>
<path style="fill:#7b7475; stroke:none;" d="M111 182L113 187L114 187L111 182z"/>
<path style="fill:#7c5451; stroke:none;" d="M176 193L188 187L189 182C183.718 183.285 178.389 188.173 176 193z"/>
<path style="fill:#dae3f3; stroke:none;" d="M395 183.653C376.128 189.57 377.602 224.127 401 217.362C420.677 211.673 419.336 176.022 395 183.653M431 188L431 184C419.607 184.136 418.199 207.362 418 217C420.552 216.991 424.156 217.508 426.062 215.397C429.89 211.154 428.242 203.022 430.92 198.004C432.657 194.749 440.371 186.979 441.553 195.024C442.051 198.411 439.877 202.672 439.201 206C438.45 209.692 438.031 213.235 438 217L446 217C448.005 208.228 457.996 175.257 437.005 184.085C434.773 185.023 432.907 186.552 431 188M475 212L476 212L476 217C488.038 216.606 487.169 193.44 489 184L481 187C464.689 174.567 450.621 197.936 456.742 212.956C460.042 221.053 471.589 218.174 475 212z"/>
<path style="fill:#8f9add; stroke:none;" d="M506 183L506 186L507 186L506 183z"/>
<path style="fill:#dae3f3; stroke:none;" d="M592 210C583.529 210.739 575.815 214.42 574 203C577.702 203 581.334 203.005 585 202.409C593.977 200.949 603.156 189.096 590.985 184.009C575.256 177.436 559.349 198.799 567.179 212.895C571.835 221.277 590.848 220.097 592 210z"/>
<path style="fill:#b69091; stroke:none;" d="M194 184L184 194L193 188L191 206C195.618 203.317 195.521 188.945 194 184z"/>
<path style="fill:#6a77d2; stroke:none;" d="M431.333 184.667L431.667 185.333L431.333 184.667z"/>
<path style="fill:#dae3f3; stroke:none;" d="M550 212L550 217C561.498 216.623 561.824 193.26 563 184C546.84 184.057 555.304 205.794 540 211L543 184C525.061 184.063 525.883 225.705 543.995 216.826C546.332 215.68 548.138 213.76 550 212z"/>
<path style="fill:#8f9add; stroke:none;" d="M640 184L640 187L641 187L640 184z"/>
<path style="fill:#9aa5e0; stroke:none;" d="M649 184L649 187L650 187L649 184z"/>
<path style="fill:#69696f; stroke:none;" d="M197 185L197 193L198 193L197 185z"/>
<path style="fill:#9aa5e0; stroke:none;" d="M352 185L352 188L353 188L352 185z"/>
<path style="fill:#aa7981; stroke:none;" d="M138 186L125 194L139 200L145 197L149 201L149 200L143 192L142 192L140 195L135 192L140 191L138 186z"/>
<path style="fill:#6a77d2; stroke:none;" d="M369 186L369 195L370 195L369 186z"/>
<path style="fill:#aab5e5; stroke:none;" d="M488 186L488 190L489 190L488 186z"/>
<path style="fill:#1f2ebc; stroke:none;" d="M506 186L507 187L506 186z"/>
<path style="fill:#aab5e5; stroke:none;" d="M667 186L667 190L668 190L667 186z"/>
<path style="fill:#966c6a; stroke:none;" d="M194 187L194 203L197 202L194 187z"/>
<path style="fill:#6a77d2; stroke:none;" d="M379 187L379 191L380 191L379 187z"/>
<path style="fill:#c0a3a7; stroke:none;" d="M192 188C186.453 192.788 178.609 195.972 178 204L174 202C165.516 212.114 159.577 205.748 149.09 208.303C144.618 209.393 142.144 214.131 138 216L145 228C161.652 227.237 178.307 215.58 192 207L192 188z"/>
<path style="fill:#9aa5e0; stroke:none;" d="M524 188L524 196L525 196L524 188z"/>
<path style="fill:#1f2ebc; stroke:none;" d="M576 197C577.697 196.927 579.347 196.86 581.024 196.556C593.691 194.26 580.62 183.534 576 197z"/>
<path style="fill:#9aa5e0; stroke:none;" d="M648 189L648 192L649 192L648 189z"/>
<path style="fill:#5765b9; stroke:none;" d="M254 190L253 197L254 197L254 190z"/>
<path style="fill:#9aa5e0; stroke:none;" d="M351 190L351 193L352 193L351 190z"/>
<path style="fill:#1f2ebc; stroke:none;" d="M398.018 190.786C390.472 193.311 387.588 213.646 397.999 210.214C406.064 207.555 408.362 187.325 398.018 190.786M471.104 190.851C465.234 192.626 461.621 211.522 469.044 210.199C477.754 208.647 481.401 187.737 471.104 190.851z"/>
<path style="fill:#8490da; stroke:none;" d="M496 190L496 193L497 193L496 190z"/>
<path style="fill:#aab5e5; stroke:none;" d="M487 191L487 195L488 195L487 191z"/>
<path style="fill:#9aa5e0; stroke:none;" d="M541 191L541 194L542 194L541 191M588.333 191.667L588.667 192.333L588.333 191.667z"/>
<path style="fill:#aab5e5; stroke:none;" d="M666 191L666 195L667 195L666 191z"/>
<path style="fill:#6a77d2; stroke:none;" d="M441 192L441 199L442 199L441 192z"/>
<path style="fill:#9aa5e0; stroke:none;" d="M515 192L515 196L516 196L515 192z"/>
<path style="fill:#754e4c; stroke:none;" d="M169 195L173 198L175 193L169 195z"/>
<path style="fill:#8e9299; stroke:none;" d="M197 193L197 200L198 200L197 193z"/>
<path style="fill:#6a77d2; stroke:none;" d="M405 193L405 201L406 201L405 193z"/>
<path style="fill:#9aa5e0; stroke:none;" d="M647 194L647 197L648 197L647 194z"/>
<path style="fill:#a68888; stroke:none;" d="M180 197L183 195L180 197z"/>
<path style="fill:#9aa5e0; stroke:none;" d="M350 195L350 198L351 198L350 195z"/>
<path style="fill:#8490da; stroke:none;" d="M421 196L421 199L422 199L421 196z"/>
<path style="fill:#aab5e5; stroke:none;" d="M486 196L486 200L487 200L486 196z"/>
<path style="fill:#9aa5e0; stroke:none;" d="M540.333 196.667L540.667 197.333L540.333 196.667z"/>
<path style="fill:#6a77d2; stroke:none;" d="M581.667 196.333L582.333 196.667L581.667 196.333z"/>
<path style="fill:#aab5e5; stroke:none;" d="M665 196L665 200L666 200L665 196z"/>
<path style="fill:#aa878d; stroke:none;" d="M154 207L154 208C162.07 209.027 169.19 210.611 174 202L178 204L180 197L154 207z"/>
<path style="fill:#6a77d2; stroke:none;" d="M465.333 197.667L465.667 198.333L465.333 197.667z"/>
<path style="fill:#aab5e5; stroke:none;" d="M523 197L523 201L524 201L523 197z"/>
<path style="fill:#8490da; stroke:none;" d="M551.333 197.667L551.667 198.333L551.333 197.667z"/>
<path style="fill:#ad898b; stroke:none;" d="M158 201L163 198L158 201z"/>
<path style="fill:#8490da; stroke:none;" d="M391.333 198.667L391.667 199.333L391.333 198.667z"/>
<path style="fill:#e0bcc2; stroke:none;" d="M181 199L176 214L189 207C187.598 202.336 185.604 200.478 181 199z"/>
<path style="fill:#9aa5e0; stroke:none;" d="M646 199L646 202L647 202L646 199z"/>
<path style="fill:#907c86; stroke:none;" d="M125 200L126 217L137 238L164 223L164 222L145 228L138 216L147 208C138.862 207.994 130.992 205.841 125 200z"/>
<path style="fill:#9aa5e0; stroke:none;" d="M349 200L349 203L350 203L349 200z"/>
<path style="fill:#8490da; stroke:none;" d="M429 200L429 203L430 203L429 200z"/>
<path style="fill:#6a77d2; stroke:none;" d="M464 200L464 208L465 208L464 200z"/>
<path style="fill:#8f9add; stroke:none;" d="M618 200L618 203L619 203L618 200z"/>
<path style="fill:#7f8bc2; stroke:none;" d="M54 201L56 204L54 201z"/>
<path style="fill:#add4f5; stroke:none;" d="M198 201C183.331 212.135 167.836 219.8 152 228.989C147.51 231.594 138.184 234.409 136.736 240.04C134.762 247.721 144.793 258.073 147 265C150.632 265 155.198 265.715 158.576 264.142C163.126 262.024 167.12 257.351 171 254.196C185.105 242.727 210.566 220.631 198 201z"/>
<path style="fill:#9aa5e0; stroke:none;" d="M455 201L455 210L456 210L455 201M539.333 201.667L539.667 202.333L539.333 201.667z"/>
<path style="fill:#aab5e5; stroke:none;" d="M664 201L664 205L665 205L664 201z"/>
<path style="fill:#755656; stroke:none;" d="M159 204L159 205L168 202L159 204z"/>
<path style="fill:#aab5e5; stroke:none;" d="M522 202L522 206L523 206L522 202z"/>
<path style="fill:#8490da; stroke:none;" d="M584 202L584 203L587 203L584 202z"/>
<path style="fill:#aab5e5; stroke:none;" d="M448 203L448 207L449 207L448 203z"/>
<path style="fill:#9aa5e0; stroke:none;" d="M502 203L502 206L503 206L502 203z"/>
<path style="fill:#6a77d2; stroke:none;" d="M574 203L574 207L575 207L574 203z"/>
<path style="fill:#aab5e5; stroke:none;" d="M348 204L348 208L349 208L348 204z"/>
<path style="fill:#6a77d2; stroke:none;" d="M381 204L381 207L382 207L381 204M565 204L565 209L566 209L565 204z"/>
<path style="fill:#9aa5e0; stroke:none;" d="M645 204L645 207L646 207L645 204z"/>
<path style="fill:#aab5e5; stroke:none;" d="M663 206L663 210L664 210L663 206M521 207L521 211L522 211L521 207z"/>
<path style="fill:#616ebe; stroke:none;" d="M246 208L245 213L246 213L246 208z"/>
<path style="fill:#9aa5e0; stroke:none;" d="M501 208L501 211L502 211L501 208z"/>
<path style="fill:#7885d6; stroke:none;" d="M355.667 209.333L356.333 209.667L355.667 209.333z"/>
<path style="fill:#9aa5e0; stroke:none;" d="M644 209L644 212L645 212L644 209z"/>
<path style="fill:#47505e; stroke:none;" d="M203 213L204 213L209 211C206.238 209.409 203.714 209.669 203 213z"/>
<path style="fill:#121620; stroke:none;" d="M204 211L206 218L211 212L204 211z"/>
<path style="fill:#7e848d; stroke:none;" d="M209.667 211.333L210.333 211.667L209.667 211.333z"/>
<path style="fill:#7885d6; stroke:none;" d="M583.667 211.333L584.333 211.667L583.667 211.333z"/>
<path style="fill:#aab5e5; stroke:none;" d="M662 211L662 215L663 215L662 211z"/>
<path style="fill:#2f3541; stroke:none;" d="M211 212L206 218L205 214L204 214L199 226L202 225L191.317 245.13L193 256L217.999 242.768L224.954 235.819L211 212z"/>
<path style="fill:#4957c8; stroke:none;" d="M475.333 212.667L475.667 213.333L475.333 212.667z"/>
<path style="fill:#698aaf; stroke:none;" d="M203 213L200 223C203.165 220.207 204.661 217.084 203 213z"/>
<path style="fill:#9aa5e0; stroke:none;" d="M500 213L500 216L501 216L500 213z"/>
<path style="fill:#737c85; stroke:none;" d="M213.333 214.667L213.667 215.333L213.333 214.667z"/>
<path style="fill:#9aa5e0; stroke:none;" d="M446.333 214.667L446.667 215.333L446.333 214.667M475 214L475 217L476 217L475 214z"/>
<path style="fill:#8f9add; stroke:none;" d="M511 214L511 217L512 217L511 214z"/>
<path style="fill:#9aa5e0; stroke:none;" d="M549 214L549 217L550 217L549 214M634.333 214.667L634.667 215.333L634.333 214.667M643.333 214.667L643.667 215.333L643.333 214.667M498.667 216.333L499.333 216.667L498.667 216.333M518.667 216.333L519.333 216.667L518.667 216.333z"/>
<path style="fill:#729fc8; stroke:none;" d="M125 217C123.694 222.424 124.052 230.763 119 234L119 242L125 239C124.641 234.829 126.136 233.361 130 232L131 237L127 237L127 238L135 242L136 242L137 238L131 230C124.349 227.981 127.158 222.143 125 217z"/>
<path style="fill:#455468; stroke:none;" d="M126 217L128 228L129 228L126 217z"/>
<path style="fill:#151b22; stroke:none;" d="M127 217L130 229L131 229L129 217L127 217z"/>
<path style="fill:#6a717b; stroke:none;" d="M214.333 217.667L214.667 218.333L214.333 217.667z"/>
<path style="fill:#8490da; stroke:none;" d="M584 217L584 218L587 218L584 217z"/>
<path style="fill:#466082; stroke:none;" d="M198 223L190 235L191 235L200 223L198 223z"/>
<path style="fill:#5d799d; stroke:none;" d="M126 224L129 230L126 224z"/>
<path style="fill:#4352c1; stroke:none;" d="M229 234L238 224L229 234z"/>
<path style="fill:#1b2029; stroke:none;" d="M167 263C173.79 262.999 187.454 262.179 192.243 256.487C195.525 252.586 190.675 248.478 191.804 244.271C193.684 237.264 199.428 231.699 202 225C191.229 228.974 183.433 242.556 176.406 251C173.109 254.962 169.191 258.301 167 263z"/>
<path style="fill:#3c3f50; stroke:none;" d="M131 226L129 228L137 238L131 226z"/>
<path style="fill:#93bee3; stroke:none;" d="M124 238L131 237L130 232C126.127 232.807 124.642 234.059 124 238z"/>
<path style="fill:#737dbc; stroke:none;" d="M226.667 234.333L227.333 234.667L226.667 234.333z"/>
<path style="fill:#2c3b4a; stroke:none;" d="M118 236L118 240L119 240L120 236L118 236z"/>
<path style="fill:#728084; stroke:none;" d="M121 240L121 241C124.194 240.987 126.271 241.403 127 238L121 240z"/>
<path style="fill:#3a4644; stroke:none;" d="M127 238L127 241C121.717 241.41 120.459 243.957 120 249L126 248L123 245L128 239L131 240L127 238z"/>
<path style="fill:#425b77; stroke:none;" d="M131 238L135 241L131 238z"/>
<path style="fill:#24252d; stroke:none;" d="M108 255L116 239C104.691 242.655 88.7683 249.424 108 255z"/>
<path style="fill:#09080e; stroke:none;" d="M116 239L108 255L114 257L118 239L116 239z"/>
<path style="fill:#191b25; stroke:none;" d="M128 239L129 244L124 251C131.183 250.207 137.765 247.791 139 257L132 262L139 264L136 258L140 258L138 247L134 248C136.324 242.131 133.379 240.748 128 239z"/>
<path style="fill:#6c737c; stroke:none;" d="M111.667 240.333L112.333 240.667L111.667 240.333z"/>
<path style="fill:#455574; stroke:none;" d="M118 240L116 249L121 251L122 241L118 240z"/>
<path style="fill:#7f858d; stroke:none;" d="M106.667 242.333L107.333 242.667L106.667 242.333z"/>
<path style="fill:#817769; stroke:none;" d="M123 245L129 244C126.348 242.077 124.806 242.236 123 245z"/>
<path style="fill:#7d8289; stroke:none;" d="M104.667 243.333L105.333 243.667L104.667 243.333z"/>
<path style="fill:#445768; stroke:none;" d="M136 243L135 246L136 243z"/>
<path style="fill:#747a80; stroke:none;" d="M102.667 244.333L103.333 244.667L102.667 244.333z"/>
<path style="fill:#7a8a97; stroke:none;" d="M137 244L134 248L139 248L137 244z"/>
<path style="fill:#375770; stroke:none;" d="M174 254L175 254L181 246L174 254z"/>
<path style="fill:#77766e; stroke:none;" d="M121 251L125 247L121 251z"/>
<path style="fill:#182439; stroke:none;" d="M115 248L116 258L120 257L118 248L115 248z"/>
<path style="fill:#364157; stroke:none;" d="M123 249L119 251L122 253L116 258C119.857 261.093 124.204 262.211 129 261L128 256L125 255L125 254L130 256L131 256C130.555 250.425 127.482 250.804 123 249z"/>
<path style="fill:#71746b; stroke:none;" d="M132 249L132 250L137 250L132 249z"/>
<path style="fill:#cbcab2; stroke:none;" d="M138 256C137.192 245.632 126.535 254.708 138 256z"/>
<path style="fill:#424f65; stroke:none;" d="M115 251L113 258C116.602 257.228 116.659 253.88 115 251z"/>
<path style="fill:#5c6367; stroke:none;" d="M138 252L135 256L135 257L139 257L138 252z"/>
<path style="fill:#6d95b9; stroke:none;" d="M173 252L159 265L166 265L173 252z"/>
<path style="fill:#96989c; stroke:none;" d="M121 253L120 256L121 253z"/>
<path style="fill:#0e152e; stroke:none;" d="M125 256L130 257C128.899 253.686 127.052 252.899 125 256z"/>
<path style="fill:#55595f; stroke:none;" d="M119.333 254.667L119.667 255.333L119.333 254.667z"/>
<path style="fill:#607ea1; stroke:none;" d="M131 254L127 258L134 261L135 256L131 254z"/>
<path style="fill:#010107; stroke:none;" d="M140 254L140 258L136 258C137.273 262.22 139.691 263.673 144 264L140 254z"/>
<path style="fill:#131524; stroke:none;" d="M122 256L121 260L124 256L122 256z"/>
<path style="fill:#4e6275; stroke:none;" d="M143.333 257.667L143.667 258.333L143.333 257.667z"/>
<path style="fill:#405784; stroke:none;" d="M129 259L127 263L133 263L133 262L129 259z"/>
<path style="fill:#32506d; stroke:none;" d="M144 259L144 264L145 264L144 259z"/>
<path style="fill:#7296b5; stroke:none;" d="M145 260L145 264L138 264L138 265L147 265L145 260z"/>
<path style="fill:#1e276d; stroke:none;" d="M166 262L173 264L173 263L166 262z"/>
<path style="fill:#b6d0e5; stroke:none;" d="M161 264L161 265L165 265L161 264z"/>
</svg>
